<?xml version="1.0" encoding="UTF-8"?>
<svg xmlns="http://www.w3.org/2000/svg" version="1.1" viewBox="0 0 566.9 566.9">
  <defs>
    <style>
      .cls-1 {
        fill: #f5f5f3;
      }

      .cls-2 {
        fill: #d9ad97;
      }
    </style>
  </defs>
  <!-- Generator: Adobe Illustrator 28.6.0, SVG Export Plug-In . SVG Version: 1.2.0 Build 709)  -->
  <g>
    <g id="Layer_1">
      <g>
        <path class="cls-2" d="M391.5,261.6c-.6,0-.6,1,0,1,5.4,0,7.4,1.8,11.3,6.6l-.2,30.4c0,4.9-2.5,7.5-7.1,7.5s-.7,1,0,1c5.1-.1,10.9-.2,16.4,0,.6,0,.5-1,0-1-4.7.2-7.3-2.4-7.3-7.5v-28.2c.1,0,29.4,36.3,29.4,36.3.3.5.9.4.9-.1l.2-37.7c0-5.1,2.5-7.7,7.1-7.5.7,0,.7-1,0-1-5.1.1-11,.2-16.4,0-.6,0-.5,1,0,1,4.7-.2,7.3,2.4,7.3,7.5v26.8l-23.9-29.7c-1.8-2.2-2.5-4.2-2.8-4.9-.1-.5-.4-.7-.8-.7-3.8.2-9.2.3-14,.1M358.4,262.6c11.5,0,16.8,9.2,16.8,21.3s-6.4,23.3-16.2,23.3-16.5-9.2-16.5-23.1,6.3-21.5,15.9-21.5M358.9,260.7c-16.2,0-23.7,14.1-23.7,24.6s10.8,23.7,23.4,23.7,23.7-9.8,23.7-23.1-9-25.2-23.4-25.2M322.2,259.4c.2,1.9-.1,2.5-2,2.5-10.2.1-20.5.2-30.7,0-1.9,0-2.3-.8-2.1-3,0-.7-1-.7-1,0,0,4.6-.2,10.1-.9,14.6-.1.9.9,1,1,.1.4-5.3,4-9.7,10.2-9.7h5.1v31c0,8.9-.9,12.3-6.5,12.3s-.8,1,0,1c6.2-.3,13-.4,19.1,0,.8,0,.8-1,0-1-6.1,0-6.4-3.4-6.4-12.1v-31.2h5c5.5,0,9.4,3.1,10.4,8.6.1.7,1.2.6,1.1,0-.6-3.8-1-9-1.2-13.2,0-.6-1.1-.5-1,0M222.1,261.6c-.6,0-.6,1,0,1,5.4,0,7.4,1.8,11.3,6.6l-.2,30.4c0,4.9-2.5,7.5-7.1,7.5s-.7,1,0,1c5.1-.1,10.9-.2,16.4,0,.6,0,.5-1,0-1-4.7.2-7.3-2.4-7.3-7.5v-28.2c.1,0,29.4,36.3,29.4,36.3.3.5.9.4.9-.1l.2-37.7c0-5.1,2.5-7.7,7.1-7.5.7,0,.7-1,0-1-5.1.1-11,.2-16.4,0-.6,0-.5,1,0,1,4.7-.2,7.3,2.4,7.3,7.5v26.8l-23.9-29.7c-1.8-2.2-2.5-4.2-2.8-4.9-.1-.5-.4-.7-.8-.7-3.8.2-9.2.3-14,.1M208.2,261.6c-5.8.2-16.1.4-21.8,0-.4,0-.4,1,0,1,4.4,0,8.5.9,8.5,7.1v28.7c0,7.8-2.3,8.9-7.1,8.9s-.8,1,0,1c6.8-.1,14.9,0,21.8,0s.6-1,0-1c-4.4-.1-8.5.4-8.5-8.3v-28.7c0-5.6,2.3-7.6,7.1-7.6s.8-1,0-1M172.7,307.3c-3.7,0-7.2.4-7.2-7.7v-29.9c0-5,2.2-7.1,6.9-7.1s.8-1,0-1c-5.1.2-13.8.3-18.9,0-.4,0-.4.8,0,.8,3,0,5.8,1.2,5.8,7.8v10.8c-7,.2-14.1.2-21.1,0v-11.3c0-5,1.8-7.2,5.5-7.2s.8-1,0-1c-6.4.2-13.4.1-19.3,0-.6,0-.6,1,0,1,4,0,7.6.9,7.6,7.6v28.8c0,7.2-2,8.4-6.3,8.4s-.8,1,0,1c5.9-.1,12.4,0,18.4,0s.4-1,0-1c-3.1,0-5.9.4-5.9-7.7v-16.6c7-.2,14.1-.2,21.1,0v16.1c0,7.3-1.5,8.2-4.8,8.2s-.7,1,0,1c5.8-.2,12.1-.2,18.1,0,.4,0,.4-1,0-1"/>
        <path class="cls-1" d="M369.8,344.7c0,.2.2.5.5.5h9.7c.3,0,.5-.2.5-.5v-.7c0-.2-.2-.5-.5-.5h-8.2v-6.2h7c.2,0,.5-.2.5-.5v-.7c0-.2-.2-.5-.5-.5h-7v-6h8.2c.3,0,.5-.2.5-.5v-.7c0-.2-.2-.5-.5-.5h-9.7c-.3,0-.5.2-.5.5v16.2ZM345.4,336.7c0,4.9,3.9,8.8,8.8,8.8s4.3-.8,6-2.4c.2-.2.2-.5,0-.7l-.7-.7c-.1,0-.3-.1-.6,0-1.3,1-2.5,1.8-4.7,1.8-3.9,0-6.8-3.3-6.8-7s3-7.1,6.8-7.1,3.4.7,4.7,1.8c.2.2.4.3.6,0l.7-.7c.2-.2.2-.5,0-.7-1.7-1.4-3.5-2.3-5.9-2.3-4.9,0-8.8,3.9-8.8,8.8M326.1,339.4l3.6-8h.2c1.2,2.7,2.4,5.4,3.6,8h-7.3ZM322.2,345.2h1c.2,0,.4-.1.4-.3l1.8-4h8.7l1.8,4c0,.1.2.3.4.3h1c.4,0,.6-.3.4-.6l-7.4-16.5c0-.1-.2-.3-.4-.3h-.2c-.2,0-.3.1-.4.3l-7.4,16.5c-.1.3,0,.6.4.6M305.8,337.2v-7.3h3.9c2,0,3.7,1.5,3.7,3.5s-1.7,3.7-3.7,3.7h-3.9ZM303.9,344.7c0,.2.2.5.5.5h.9c.2,0,.5-.2.5-.5v-5.8h4c3,0,5.5-2.5,5.5-5.5s-2.5-5.4-5.5-5.4h-5.4c-.3,0-.5.2-.5.5v16.2ZM283.6,343.5c.3.3,2.3,2,5.2,2s5.3-1.9,5.3-4.4-2.1-4.1-5.4-5.4c-2.1-.9-3.3-1.8-3.3-3.5s.8-2.7,3.4-2.7,3,1,3.2,1.1c.4.2.6.1.9-.2,0-.1.2-.3.3-.5.3-.5,0-.8-.1-.8,0,0-1.8-1.2-4.2-1.2-3.9,0-5.2,2.7-5.2,4.4,0,2.8,1.6,3.9,4.3,5.1,2.8,1.2,4.3,2.2,4.3,3.9s-1.3,2.7-3.3,2.7-4-1.7-4.1-1.9c-.3-.3-.6,0-.9.2-.1.1-.2.3-.4.5-.3.5,0,.7.1.8M263,344.6c0,.3.2.6.6.6h.7c.3,0,.6-.3.6-.6v-7.8l7.9,8.2c0,0,.3.2.4.2h1.2c.5,0,.6-.6.4-.8l-8.1-8.3,7.7-7.2c.4-.4.1-.9-.3-.9h-1.2c-.1,0-.4.1-.5.2l-7.6,7.3v-6.9c0-.3-.3-.6-.6-.6h-.7c-.3,0-.6.3-.6.6v16ZM242.9,336.9v-7h4.8c1.9,0,3.5,1.6,3.5,3.5s-1.6,3.6-3.5,3.6h-4.8ZM241,344.7c0,.2.2.5.5.5h1c.2,0,.5-.2.5-.5v-6.2h4.7l3.3,6.5c0,0,.2.2.4.2h1.2c.4,0,.6-.4.4-.7l-3.4-6.2c2.1-.9,3.6-2.7,3.6-5s-2.4-5.2-5.3-5.2h-6.3c-.3,0-.5.2-.5.5v16.2ZM216,336.7c0-3.9,3.2-7.1,7.1-7.1s7.1,3.2,7.1,7.1-3.2,7.1-7.1,7.1-7.1-3.2-7.1-7.1M214.2,336.7c0,4.9,3.9,8.8,8.8,8.8s8.8-3.9,8.8-8.8-3.9-8.8-8.8-8.8-8.8,3.9-8.8,8.8M191.1,345.1c0,.2.2.3.4.3h.4c.2,0,.3-.1.4-.3l4.2-13.3h.1l4.2,13.3c0,.1.2.3.4.3h.4c.2,0,.4-.1.4-.3l4.6-16.5c0-.3,0-.6-.4-.6h-1c-.2,0-.4.2-.4.3l-3.3,12.7h0l-4.2-13c0-.1-.2-.3-.4-.3h-.4c-.2,0-.4.1-.4.3l-4.1,13h0l-3.4-12.7c0-.2-.2-.3-.4-.3h-1c-.3,0-.5.2-.4.6l4.6,16.5Z"/>
      </g>
      <path class="cls-1" d="M254.1,225.3h58.5v14.9h-58.5v-14.9ZM254.1,223.9v-14.7h58.5v14.7h-58.5ZM263.1,195.4h40.5l8.7,12.5h-57.9l8.7-12.5ZM262.4,194.1l-9.6,13.9v33.5h61.2v-33.5l-9.6-13.9h-41.9Z"/>
    </g>
  </g>
</svg>